<?xml version="1.0" standalone="no"?><!DOCTYPE svg PUBLIC "-//W3C//DTD SVG 1.1//EN" "http://www.w3.org/Graphics/SVG/1.1/DTD/svg11.dtd"><svg class="icon" width="200px" height="164.76px" viewBox="0 0 1243 1024" version="1.1" xmlns="http://www.w3.org/2000/svg"><path d="M475.648 814.884571a43.593143 43.593143 0 0 1 61.44 0l122.88 122.88c16.822857 16.969143 16.822857 44.397714 0 61.44a43.593143 43.593143 0 0 1-61.44 0l-122.88-122.88a43.52 43.52 0 0 1 0-61.44z" fill="#A8A8B4" /><path d="M598.528 937.691429l122.88-122.88a43.593143 43.593143 0 0 1 61.366857 0c16.822857 17.042286 16.822857 44.470857 0 61.44l-122.88 122.88a43.593143 43.593143 0 0 1-61.44 0 43.52 43.52 0 0 1 0-61.44z" fill="#A8A8B4" /><path d="M626.541714 924.964571a43.52 43.52 0 0 1-43.446857-43.446857V649.874286c0-23.844571 19.602286-43.373714 43.446857-43.373715 23.917714 0 43.446857 19.529143 43.446857 43.373715v231.643428a43.52 43.52 0 0 1-43.446857 43.446857z" fill="#A8A8B4" /><path d="M626.541714 259.072a43.52 43.52 0 0 1-43.446857-43.446857V99.84c0-23.917714 19.602286-43.446857 43.446857-43.446857 23.917714 0 43.446857 19.529143 43.446857 43.446857v115.785143a43.52 43.52 0 0 1-43.446857 43.446857z" fill="#F9A825" /><path d="M216.356571 664.356571a43.52 43.52 0 0 1-43.373714 43.446858H57.051429a43.52 43.52 0 0 1-43.446858-43.446858c0-23.844571 19.602286-43.373714 43.446858-43.373714h115.858285c23.844571 0 43.373714 19.529143 43.373715 43.373714z m1013.321143 0a43.52 43.52 0 0 1-43.373714 43.446858h-115.858286a43.52 43.52 0 0 1-43.373714-43.446858c0-23.844571 19.529143-43.373714 43.373714-43.373714h115.858286c23.844571 0 43.373714 19.529143 43.373714 43.373714zM335.140571 377.782857a43.593143 43.593143 0 0 1-61.44 0l-81.92-81.92a43.593143 43.593143 0 0 1 0-61.366857 43.593143 43.593143 0 0 1 61.44 0l81.92 81.92c16.822857 16.969143 16.822857 44.397714 0 61.366857z m573.147429 0a43.593143 43.593143 0 0 1 0-61.44l81.92-81.846857a43.593143 43.593143 0 0 1 61.44 0c16.822857 16.969143 16.822857 44.397714 0 61.44l-81.92 81.846857a43.593143 43.593143 0 0 1-61.44 0z m-475.574857 460.288a259.291429 259.291429 0 0 1-66.706286-173.714286 260.534857 260.534857 0 1 1 521.142857 0c0 64.219429-23.771429 126.098286-66.779428 173.714286h106.788571c30.72-52.662857 46.811429-112.64 46.811429-173.714286a347.428571 347.428571 0 0 0-694.857143 0c0 63.341714 17.261714 122.587429 46.811428 173.714286h106.788572z" fill="#F9A825" /></svg>